<?xml version="1.0" encoding="utf-8"?>
<!-- Generator: Adobe Illustrator 25.2.3, SVG Export Plug-In . SVG Version: 6.00 Build 0)  -->
<svg version="1.1" id="Calque_1" xmlns="http://www.w3.org/2000/svg" xmlns:xlink="http://www.w3.org/1999/xlink" x="0px"
    y="0px" viewBox="0 0 437.96 364.98" style="enable-background:new 0 0 437.96 364.98;" xml:space="preserve">
    <style type="text/css">
        .st0 {
            fill: #3C71DA;
        }

        .st1 {
            fill: #FF573E;
        }

        .st2 {
            fill: #FFCB03;
        }
    </style>
    <g>
        <path class="st2" d="M270.98,132.91c-26.64-16.13-51.71-18.65-74.92-12.46c-10.42,2.78-20.53,8.36-28.51,15.79
		c-4.21,3.92-6.13,5.93-8.94,9.4c-5.66,6.97-10.26,14.55-14.21,22.59c-0.4,0.81-1.24,2.52-2.06,3.82c-0.95,1.5-1.51,1.71-2.53,1.25
		c-2.54-1.15-6.91-2.88-9.26-4.22c-1.3-0.74-1.56-1.99-0.3-5.76c0.27-0.82,1.15-2.67,1.51-3.48c3.36-7.75,6.01-13.03,10.14-23.21
		s9.83-30.11,6.7-49.69c-7.65-34.05-38.77-49.4-71.26-45.83c-51.99,5.71-97.41,68.68-68.12,160.93
		c26.27,82.73,27.58,84.03,13.66,148.49c-2.32,10.75,12.56,17.21,17.59,13.31c37.03-28.69,72.92-37.92,108.35-38.53
		c40.25-0.69,115.11-23.4,136.69-42.59C333.77,239.81,323.61,164.78,270.98,132.91z" />
        <path d="M437.26,103.29c-4.18-26.85-29.54-44.38-55.23-47.04c-15.33-1.59-29.85,2.55-42.73,10c1.79-10.37,2.08-20.92,0.42-31.14
		c-1.88-11.55-7.49-22.71-17.55-29.17C311.17-1.11,297.11-1,284.78,1.72c-47.52,10.49-69.63,62.96-73.23,106.61
		c-2.76,33.52,1.86,67.17-1.24,100.69c-0.53,5.68,5.23,10.55,10.55,10.55c0.93,0,1.79-0.14,2.61-0.35c0.07-0.01,0.13-0.01,0.2-0.03
		c29.52-6.92,59.88-9,89.72-14.14c28.88-4.97,58.33-13.71,83.5-29.12C421.8,160.69,442.03,133.91,437.26,103.29z M378.17,162.26
		c-22.63,11.77-47.2,18.56-72.25,22.77c-24.48,4.11-49.29,6.32-73.69,10.89c0.89-21.78-0.6-43.59-0.47-65.39
		c0.12-21.34,1.79-43.07,10.48-62.84c6.99-15.91,17.77-31.06,33.09-39.82c12.49-7.15,35.61-12.78,42.05,4.68
		c3.68,9.96,2.66,21.68,0.66,31.88c-2.54,12.93-7.42,24.91-14.46,36.02c-7.33,11.56,10.69,21.83,18.22,10.65
		c12.01-17.83,31.67-34.11,54.23-34.07c18.08,0.03,38.01,11.58,40.7,30.73C420.25,132.75,397.94,151.98,378.17,162.26z" />
    </g>
</svg>